<?xml version="1.0" encoding="UTF-8" standalone="no"?>
<svg
   width="80"
   height="95"
   viewBox="0 0 95 80"
   fill="none"
   version="1.1"
   id="svg2"
   xmlns="http://www.w3.org/2000/svg"
   xmlns:svg="http://www.w3.org/2000/svg">
  <defs
     id="defs2" />
  <g
     id="g2"
     transform="matrix(1.1686405,0,0,1.1686405,0,-16.02085)">
    <path
       fill="#6b38f1"
       d="M 60.417,0 H 19.576 C 14.348,0 9.426,2.105 5.732,5.909 2.038,9.719 0,14.779 0,20.16 v 6.175 c 0,8.224 5.023,15.43 13.441,19.283 l 3.36,1.418 v -20.4 a 2.355,2.355 0 0 1 -0.02,-0.308 v -6.175 c 0,-1.046 0.518,-1.727 0.825,-2.042 0.307,-0.316 0.968,-0.85 1.976,-0.85 h 40.842 a 2.72,2.72 0 0 1 1.983,0.85 c 0.308,0.315 0.818,0.996 0.818,2.035 v 13.55 H 80 V 20.154 C 80,14.771 77.962,9.704 74.268,5.902 70.56,2.098 65.645,0 60.418,0 Z M 66.49,49.345 63.2,47.956 v 20.54 c 0.013,0.049 0.013,0.105 0.013,0.154 v 6.175 a 2.895,2.895 0 0 1 -0.825,2.05 c -0.306,0.315 -0.968,0.849 -1.977,0.849 H 19.576 c -1.54,0 -2.795,-1.299 -2.795,-2.877 V 61.296 H 0 v 13.55 C 0,85.963 8.78,95 19.576,95 h 40.841 c 5.228,-0.007 10.15,-2.105 13.844,-5.909 3.694,-3.81 5.732,-8.876 5.732,-14.259 v -6.175 c 0,-8.301 -5.044,-15.522 -13.503,-19.304 z"
       id="path1" />
    <path
       fill="#6b38f1"
       d="m 39.996,68.6 c 0,0 -1.35,-7.641 -7.21,-13.676 v 0.007 A 26.622,26.622 0 0 0 30.42,52.791 C 25.097,48.552 19.487,47.5 19.487,47.5 c 0,0 7.423,-1.39 13.291,-7.425 a 25.873,25.873 0 0 0 2.972,-3.698 c 3.374,-5.073 4.24,-9.992 4.24,-9.992 0,0 1.356,7.649 7.218,13.683 0.77,0.793 1.567,1.495 2.365,2.134 5.323,4.238 10.926,5.29 10.926,5.29 0,0 -7.423,1.397 -13.285,7.432 a 25.842,25.842 0 0 0 -2.965,3.698 c -3.373,5.06 -4.253,9.979 -4.253,9.979 z"
       id="path2" />
  </g>
</svg>
