<?xml version="1.0" encoding="UTF-8" standalone="no"?>
<svg
   width="91.019341"
   height="30"
   fill="none"
   version="1.1"
   id="svg7"
   xmlns="http://www.w3.org/2000/svg"
   xmlns:svg="http://www.w3.org/2000/svg">
  <g
     id="g7">
    <g
       clip-path="url(#a)"
       id="g5">
      <mask
         id="b"
         width="182"
         height="30"
         x="0"
         y="0"
         maskUnits="userSpaceOnUse">
        <path
           fill="#ffffff"
           d="M 182,0 H 0 v 30 h 182 z"
           id="path1" />
      </mask>
      <g
         mask="url(#b)"
         id="g4">
        <path
           fill="#856ffc"
           d="M 19.15,0 H 6.206 A 6.093,6.093 0 0 0 1.818,1.866 6.413,6.413 0 0 0 0,6.366 v 1.95 c 0,2.598 1.592,4.873 4.26,6.09 l 1.066,0.448 V 8.412 A 0.74,0.74 0 0 1 5.319,8.314 v -1.95 c 0,-0.33 0.164,-0.545 0.262,-0.645 A 0.871,0.871 0 0 1 6.207,5.451 h 12.946 c 0.322,0 0.532,0.167 0.629,0.268 0.097,0.1 0.259,0.315 0.259,0.643 v 4.28 h 5.317 V 6.363 c 0,-1.7 -0.646,-3.3 -1.817,-4.5 A 6.103,6.103 0 0 0 19.151,0 Z m 1.926,15.583 -1.044,-0.439 v 6.486 a 0.187,0.187 0 0 1 0.005,0.049 v 1.95 c 0,0.33 -0.162,0.547 -0.262,0.647 a 0.871,0.871 0 0 1 -0.626,0.268 H 6.205 A 0.9,0.9 0 0 1 5.319,23.636 v -4.28 H 0 v 4.28 C 0,27.146 2.783,30 6.205,30 h 12.946 a 6.102,6.102 0 0 0 4.388,-1.866 6.419,6.419 0 0 0 1.817,-4.503 v -1.95 c 0,-2.621 -1.599,-4.902 -4.28,-6.096 z"
           id="path2" />
        <path
           fill="#856ffc"
           d="m 10.392,17.345 c 1.858,1.905 2.286,4.318 2.286,4.318 0,0 0.279,-1.553 1.348,-3.15 0.264,-0.395 0.573,-0.792 0.94,-1.169 1.858,-1.905 4.21,-2.346 4.21,-2.346 0,0 -1.775,-0.333 -3.463,-1.671 a 8.06,8.06 0 0 1 -0.75,-0.674 c -1.857,-1.905 -2.287,-4.321 -2.287,-4.321 0,0 -0.275,1.553 -1.344,3.156 A 8.183,8.183 0 0 1 10.39,12.655 C 8.53,14.561 6.177,15 6.177,15 c 0,0 1.778,0.332 3.465,1.67 0.253,0.205 0.506,0.426 0.75,0.677 v -0.003 z"
           id="path3" />
      </g>
    </g>
    <path
       fill="#ffffff"
       d="m 55.845677,14.788205 c 1.004776,0.410053 1.148147,1.148148 1.148147,2.256175 v 3.363022 c 0,1.55938 -0.697385,2.133454 -1.5995,2.461496 h -4.799092 c -0.902706,-0.328042 -1.60009,-0.902706 -1.60009,-2.460906 v -2.912849 h 3.281601 v 2.502206 l 0.205322,0.205322 h 1.025426 l 0.204732,-0.205322 v -2.255584 l -0.184082,-0.287332 -3.384262,-1.51808 C 49.139103,15.48559 48.995142,14.788205 48.995142,13.680768 v -3.11758 c 0,-1.5587903 0.697384,-2.132864 1.60009,-2.4614962 h 4.799092 c 0.902115,0.3286322 1.5995,0.9027059 1.5995,2.4614962 v 2.747648 h -3.281601 v -2.337595 l -0.204732,-0.205322 h -1.025426 l -0.205322,0.205322 v 2.153514 l 0.266682,0.328042 z M 65.49932,11.178562 H 63.140484 V 22.868898 H 59.858883 V 11.178562 H 57.500637 V 8.1011018 h 7.998683 v 3.0768702 z m 8.621726,-0.615374 v 9.844804 c 0,1.55879 -0.697385,2.132864 -1.599501,2.460906 h -4.799091 c -0.902706,-0.328042 -1.60009,-0.902706 -1.60009,-2.460906 v -9.844804 c 0,-1.5587903 0.697384,-2.132864 1.60009,-2.4614962 h 4.799091 c 0.902116,0.3286322 1.599501,0.9027059 1.599501,2.4614962 z m -3.281602,9.434161 v -9.024108 l -0.204731,-0.205322 h -1.025427 l -0.205321,0.205322 v 9.024108 l 0.205321,0.205322 h 1.025427 z m 8.828225,-9.22943 h -1.230748 v 3.692244 h 1.230748 L 79.87299,14.254842 V 10.973241 Z M 78.436921,22.868898 H 75.155323 V 8.1016918 H 81.5545 c 0.90271,0.3286322 1.5995,0.9027059 1.5995,2.4614962 v 3.13764 c 0,1.41542 -0.57407,2.030794 -1.37412,2.379486 l 1.76411,4.717081 v 2.071503 h -2.87154 l -1.886837,-5.742507 h -0.348692 z m 5.711829,0 V 8.1016918 h 6.76793 v 3.0768702 h -3.48633 v 2.666227 h 3.28101 v 3.07628 h -3.28101 v 2.871549 h 3.58899 v 3.07628 z"
       id="path5"
       style="stroke-width:0.590004" />
    <path
       stroke="#856ffc"
       d="M 36.198745,8.9205021 V 23.079498"
       id="path6"
       style="stroke-width:0.737954" />
  </g>
  <defs
     id="defs7">
    <clipPath
       id="a">
      <path
         fill="#ffffff"
         d="M 0,0 H 182 V 30 H 0 Z"
         id="path7" />
    </clipPath>
  </defs>
</svg>
